<?xml version="1.0" standalone="no"?>
<!DOCTYPE svg PUBLIC "-//W3C//DTD SVG 20010904//EN"
 "http://www.w3.org/TR/2001/REC-SVG-20010904/DTD/svg10.dtd">
<svg version="1.0" xmlns="http://www.w3.org/2000/svg"
 width="373.000000pt" height="373.000000pt" viewBox="0 0 373.000000 373.000000"
 preserveAspectRatio="xMidYMid meet">
<metadata>
Created by potrace 1.11, written by Peter Selinger 2001-2013
</metadata>
<g transform="translate(0.000000,373.000000) scale(0.100000,-0.100000)"
fill="#000000" stroke="none">
<path d="M1729 3726 c-2 -2 -37 -6 -77 -10 -41 -3 -77 -8 -80 -10 -4 -2 -29
-7 -57 -10 -27 -4 -58 -9 -67 -12 -9 -3 -25 -7 -36 -9 -98 -18 -296 -97 -436
-173 -348 -189 -623 -478 -794 -836 -66 -137 -138 -367 -157 -501 -4 -27 -11
-77 -15 -110 -8 -59 -6 -381 3 -420 2 -11 8 -42 11 -70 21 -144 93 -370 166
-515 226 -452 591 -778 1057 -943 97 -34 254 -75 323 -83 19 -2 60 -8 90 -13
55 -9 397 -7 435 2 11 2 43 8 70 11 77 11 270 64 365 100 574 222 1004 710
1145 1301 40 165 52 277 50 455 -3 256 -36 434 -119 650 -99 254 -246 481
-431 660 -292 284 -651 463 -1040 520 -72 11 -398 23 -406 16z"/>
</g>
</svg>
